# xmcd
#
# Track frame offsets:
#	150
#	18666
#	32198
#	57225
#	88265
#	107472
#	131773
#	152251
#	167414
#	190153
#	210239
#	226887
#	244669
#	264558
#	278849
#	298693
#
# Disc length: 4259 seconds
# Revision: 0
# Processed by: cddbd v1.5.2PL0 Copyright (c) Steve Scherf et al.
# Submitted via: dBpowerAMP V12.0
#
DISCID=d510a110
DTITLE=Tom Waits - Mule variations
DYEAR=1999
DGENRE=Jazz Blues
TTITLE0=Big in Japan
TTITLE1=Lowside of the road
TTITLE2=Hold on
TTITLE3=Get behind the mule
TTITLE4=House where nobody lives
TTITLE5=Cold water
TTITLE6=Pony
TTITLE7=What's he building?
TTITLE8=Black market baby
TTITLE9=Eyeball kid
TTITLE10=Picture in a frame
TTITLE11=Chocolate Jesus
TTITLE12=Georgia Lee
TTITLE13=Filipino box spring hog
TTITLE14=Take it with me
TTITLE15=Come on up to the house
EXTD=
EXTT0=
EXTT1=
EXTT2=
EXTT3=
EXTT4=
EXTT5=
EXTT6=
EXTT7=
EXTT8=
EXTT9=
EXTT10=
EXTT11=
EXTT12=
EXTT13=
EXTT14=
EXTT15=
PLAYORDER=
